<?xml version="1.0" encoding="UTF-8" standalone="no"?>
<svg
   xmlns:dc="http://purl.org/dc/elements/1.1/"
   xmlns:cc="http://creativecommons.org/ns#"
   xmlns:rdf="http://www.w3.org/1999/02/22-rdf-syntax-ns#"
   xmlns:svg="http://www.w3.org/2000/svg"
   xmlns="http://www.w3.org/2000/svg"
   xmlns:sodipodi="http://sodipodi.sourceforge.net/DTD/sodipodi-0.dtd"
   xmlns:inkscape="http://www.inkscape.org/namespaces/inkscape"
   width="96"
   height="96"
   viewBox="0 0 96 96"
   version="1.1"
   id="svg178"
   sodipodi:docname="sprites.svg"
   inkscape:version="0.92.3 (2405546, 2018-03-11)">
  <metadata
     id="metadata184">
    <rdf:RDF>
      <cc:Work
         rdf:about="">
        <dc:format>image/svg+xml</dc:format>
        <dc:type
           rdf:resource="http://purl.org/dc/dcmitype/StillImage" />
        <dc:title></dc:title>
      </cc:Work>
    </rdf:RDF>
  </metadata>
  <defs
     id="defs182" />
  <sodipodi:namedview
     pagecolor="#ffffff"
     bordercolor="#666666"
     borderopacity="1"
     objecttolerance="10"
     gridtolerance="10"
     guidetolerance="10"
     inkscape:pageopacity="0"
     inkscape:pageshadow="2"
     inkscape:window-width="1505"
     inkscape:window-height="1106"
     id="namedview180"
     showgrid="false"
     inkscape:pagecheckerboard="true"
     inkscape:zoom="9.1803385"
     inkscape:cx="48"
     inkscape:cy="48"
     inkscape:window-x="458"
     inkscape:window-y="182"
     inkscape:window-maximized="0"
     inkscape:current-layer="svg178" />
  <svg
     width="16"
     height="16"
     viewBox="0 0 16 16"
     id="add"
     x="16"
     version="1.1">
    <path
       d="M9.02 13.98h-2v-5h-5v-2h5v-5h2v5l5-.028V8.98h-5z"
       id="path2" />
  </svg>
  <svg
     width="16"
     height="16"
     version="1.1"
     viewBox="0 0 16 16"
     id="all"
     x="64"
     y="16">
    <circle
       cx="8"
       cy="8"
       r="6"
       fill="none"
       stroke="#000"
       stroke-width="2"
       id="circle5" />
  </svg>
  <svg
     width="16"
     height="16"
     version="1.1"
     viewBox="0 0 16 16"
     id="alphabetically"
     y="16">
    <path
       d="m8.7428 12.5h-1.9141l-0.76109-2.0444h-3.4819l-0.7196 2.044h-1.8661l3.3939-9h1.8604l3.4885 9zm-3.2392-3.5611-1.2003-3.3393-1.1775 3.3393h2.3778z"
       id="path8" />
    <path
       d="m8.9212 12.5v-1.6387l4.5763-5.8387h-4.0597v-1.5226h6.3772v1.4123l-4.7719 6.071h4.9569v1.5167h-7.0788z"
       id="path10" />
  </svg>
  <svg
     width="16"
     height="16"
     version="1.1"
     viewbox="0 0 16 16"
     viewBox="0 0 16 16"
     id="calendar-due"
     x="32">
    <path
       d="m4 1c-0.554 0-1 0.446-1 1v2c0 0.554 0.446 1 1 1s1-0.446 1-1v-2c0-0.554-0.446-1-1-1zm8 0c-0.554 0-1 0.446-1 1v2c0 0.554 0.446 1 1 1s1-0.446 1-1v-2c0-0.554-0.446-1-1-1zm-6.5 2v1c0 0.831-0.669 1.5-1.5 1.5s-1.5-0.669-1.5-1.5v-0.9375c-0.8841 0.227-1.5017 1.0247-1.5 1.9375v8c0 1.108 0.892 2 2 2h10c1.108 0 2-0.892 2-2v-8c0.0017-0.9128-0.61588-1.7105-1.5-1.9375v0.9375c0 0.831-0.669 1.5-1.5 1.5s-1.5-0.669-1.5-1.5v-1zm-2.453 4h9.906c0.02644-0.0012 0.0482 0.02056 0.047 0.047v5.906c0.0012 0.02644-0.02056 0.0482-0.047 0.047h-9.906c-0.02644 0.0012-0.048204-0.02056-0.047-0.047v-5.906c-0.0012-0.02644 0.02056-0.048205 0.047-0.047z"
       fill="#4574A9"
       id="path16" />
  </svg>
  <svg
     width="16"
     height="16"
     version="1.1"
     viewbox="0 0 16 16"
     viewBox="0 0 16 16"
     id="calendar-overdue"
     x="32"
     y="16">
    <path
       d="m4 1c-0.554 0-1 0.446-1 1v2c0 0.554 0.446 1 1 1s1-0.446 1-1v-2c0-0.554-0.446-1-1-1zm8 0c-0.554 0-1 0.446-1 1v2c0 0.554 0.446 1 1 1s1-0.446 1-1v-2c0-0.554-0.446-1-1-1zm-6.5 2v1c0 0.831-0.669 1.5-1.5 1.5s-1.5-0.669-1.5-1.5v-0.9375c-0.8841 0.227-1.5017 1.0247-1.5 1.9375v8c0 1.108 0.892 2 2 2h10c1.108 0 2-0.892 2-2v-8c0.0017-0.9128-0.61588-1.7105-1.5-1.9375v0.9375c0 0.831-0.669 1.5-1.5 1.5s-1.5-0.669-1.5-1.5v-1zm-2.453 4h9.906c0.02644-0.0012 0.0482 0.02056 0.047 0.047v5.906c0.0012 0.02644-0.02056 0.0482-0.047 0.047h-9.906c-0.02644 0.0012-0.048204-0.02056-0.047-0.047v-5.906c-0.0012-0.02644 0.02056-0.048205 0.047-0.047z"
       fill="#CE3433"
       id="path19" />
  </svg>
  <svg
     width="16"
     height="16"
     version="1.1"
     viewBox="0 0 16 16"
     id="checkmark"
     y="32">
    <path
       d="m7.1754 13.693c2.5618-5.7886 5.8526-9.6003 7.3076-11.335 1.183-1.401 0.719-1.177 0.199-0.8234-2.137 1.4563-6.1287 6.1399-7.6559 7.7638-0.2793 0.299-0.9223 1.0036-1.067 1.0036-0.1596 0-0.7052-0.263-1.0197-0.4552-1.1895-0.7316-2.3298-1.4514-3.0451-1.7203-1.5226-0.5738-1.0921-0.0263-1.0048 0.1568 0.2709 0.5679 3.9479 3.6637 5.1652 5.1237 0.66413 0.7746 0.72507 1.2925 1.1207 0.286z"
       stroke="#000"
       stroke-miterlimit="10"
       stroke-width=".535"
       id="path22" />
  </svg>
  <svg
     width="16"
     height="16"
     version="1.1"
     viewBox="0 0 16 16"
     id="checkmark-color"
     x="16"
     y="32">
    <path
       d="m7.1754 13.693c2.5618-5.7886 5.8526-9.6003 7.3076-11.335 1.183-1.401 0.719-1.177 0.199-0.8234-2.137 1.4563-6.1287 6.1399-7.6559 7.7638-0.2793 0.299-0.9223 1.0036-1.067 1.0036-0.1596 0-0.7052-0.263-1.0197-0.4552-1.1895-0.7316-2.3298-1.4514-3.0451-1.7203-1.5226-0.5738-1.0921-0.0263-1.0048 0.1568 0.2709 0.5679 3.9479 3.6637 5.1652 5.1237 0.66413 0.7746 0.72507 1.2925 1.1207 0.286z"
       fill="#71b73d"
       stroke="#71b73d"
       stroke-miterlimit="10"
       stroke-width=".535"
       id="path25" />
  </svg>
  <svg
     width="16"
     height="16"
     version="1.1"
     viewBox="0 0 16 16"
     id="clock"
     x="32"
     y="32">
    <g
       fill="none"
       stroke="#000"
       stroke-width="1.5"
       id="g40">
      <circle
         cx="8"
         cy="8"
         r="5"
         id="circle28" />
      <path
         d="m5.1005 12.027-1.5 2.5981"
         id="path30" />
      <path
         d="m10.9 12.027 1.5 2.5981"
         id="path32" />
      <path
         d="m4.9731 1.6495-2.5981 1.5"
         id="path34" />
      <path
         d="m11.027 1.6495 2.5981 1.5"
         id="path36" />
      <path
         d="m8 5v3h2"
         id="path38" />
    </g>
  </svg>
  <svg
     width="16"
     height="16"
     version="1.1"
     viewBox="0 0 16 16"
     id="clock-due"
     x="48">
    <g
       fill="none"
       stroke="#4574A9"
       stroke-width="1.5"
       id="g55">
      <circle
         cx="8"
         cy="8"
         r="5"
         id="circle43" />
      <path
         d="m5.1005 12.027-1.5 2.5981"
         id="path45" />
      <path
         d="m10.9 12.027 1.5 2.5981"
         id="path47" />
      <path
         d="m4.9731 1.6495-2.5981 1.5"
         id="path49" />
      <path
         d="m11.027 1.6495 2.5981 1.5"
         id="path51" />
      <path
         d="m8 5v3h2"
         id="path53" />
    </g>
  </svg>
  <svg
     width="16"
     height="16"
     version="1.1"
     viewBox="0 0 16 16"
     id="clock-overdue"
     x="48"
     y="16">
    <g
       fill="none"
       stroke="#CE3433"
       stroke-width="1.5"
       id="g70">
      <circle
         cx="8"
         cy="8"
         r="5"
         id="circle58" />
      <path
         d="m5.1005 12.027-1.5 2.5981"
         id="path60" />
      <path
         d="m10.9 12.027 1.5 2.5981"
         id="path62" />
      <path
         d="m4.9731 1.6495-2.5981 1.5"
         id="path64" />
      <path
         d="m11.027 1.6495 2.5981 1.5"
         id="path66" />
      <path
         d="m8 5v3h2"
         id="path68" />
    </g>
  </svg>
  <svg
     width="16"
     height="16"
     version="1.1"
     viewbox="0 0 16 16"
     viewBox="0 0 16 16"
     id="close"
     x="48"
     y="32">
    <path
       d="m12.95 11.536-1.414 1.414-3.536-3.536-3.535 3.536-1.415-1.414 3.536-3.536-3.536-3.536 1.415-1.414 3.535 3.536 3.516-3.555 1.434 1.434-3.536 3.535z"
       id="path73" />
  </svg>
  <svg
     width="16"
     height="16"
     version="1.1"
     viewBox="0 0 16 16"
     id="current"
     y="48">
    <path
       d="m1 8h4l1.5-4.0935 3 8.1875 1.5-4.094h4"
       fill="none"
       stroke="#000"
       stroke-miterlimit="10"
       stroke-width="2"
       id="path76" />
  </svg>
  <svg
     width="16"
     height="16"
     version="1.1"
     viewBox="0 0 16 16"
     id="hide"
     x="16"
     y="48">
    <g
       fill="none"
       stroke="#000"
       stroke-linecap="round"
       stroke-linejoin="round"
       stroke-width="1.5"
       id="g83">
      <path
         d="m8.7576 14.243 6.4924-6.243-6.4924-6.2427"
         id="path79" />
      <path
         d="m0.76074 8h14.479"
         id="path81" />
    </g>
  </svg>
  <svg
     width="16"
     height="16"
     version="1.1"
     viewBox="0 0 16 16"
     id="manual"
     x="32"
     y="48">
    <g
       fill="none"
       stroke="#000"
       stroke-linejoin="round"
       stroke-width="1.5"
       id="g98">
      <rect
         x="4.75"
         y="1.75"
         width="9.5"
         height="9.5"
         id="rect86" />
      <polyline
         points="3.5 4.75 1.75 4.75 1.75 7"
         id="polyline88" />
      <polyline
         points="1.75 12 1.75 14.25 4 14.25"
         id="polyline90" />
      <polyline
         points="9 14.25 11.25 14.25 11.25 13"
         id="polyline92" />
      <line
         x1="1.75"
         x2="1.75"
         y1="8"
         y2="11"
         id="line94" />
      <line
         x1="5"
         x2="8"
         y1="14.25"
         y2="14.25"
         id="line96" />
    </g>
  </svg>
  <svg
     width="16"
     height="16"
     viewbox="0 0 16 16"
     viewBox="0 0 16 16"
     id="menu"
     x="48"
     y="48"
     version="1.1">
    <path
       d="M2 2v2h12V2zm0 5v2h12V7zm0 5v2h12v-2z"
       id="path101" />
  </svg>
  <svg
     width="16"
     height="16"
     version="1"
     viewBox="0 0 16 16"
     id="note"
     x="64">
    <path
       d="M2.35 1.002A.45.45 0 0 0 2 1.44V14.56c0 .232.206.44.432.44H13.57a.452.452 0 0 0 .432-.438V4.42a.458.458 0 0 0-.055-.192l-3.312-3.2a.427.427 0 0 0-.135-.026H2.43a.424.424 0 0 0-.08 0zM4 3h6v1H4V3zm0 3h5v1H4V6zm0 3h8v1H4V9zm0 3h4v1H4v-1z"
       style="block-progression:tb;text-indent:0;text-transform:none"
       id="path104" />
  </svg>
  <svg
     width="16"
     height="16"
     version="1.1"
     viewBox="0 0 16 16"
     id="percent">
    <g
       fill="none"
       stroke="#000"
       stroke-linecap="round"
       stroke-width="1.5"
       id="g113">
      <circle
         cx="4"
         cy="4"
         r="2.25"
         id="circle107" />
      <path
         d="m11.603 1.7597-7.206 12.481"
         id="path109" />
      <circle
         cx="12"
         cy="12"
         r="2.25"
         id="circle111" />
    </g>
  </svg>
  <svg
     width="16"
     height="16"
     version="1.1"
     viewBox="0 0 16 16"
     id="percent-active"
     x="64"
     y="32">
    <g
       fill="none"
       stroke="#4574a9"
       stroke-linecap="round"
       stroke-width="1.5"
       id="g122">
      <circle
         cx="4"
         cy="4"
         r="2.25"
         fill="none"
         id="circle116" />
      <path
         d="m11.603 1.7597-7.206 12.481"
         id="path118" />
      <circle
         cx="12"
         cy="12"
         r="2.25"
         id="circle120" />
    </g>
  </svg>
  <svg
     width="16"
     height="16"
     version="1.1"
     viewBox="0 0 16 16"
     id="random"
     x="64"
     y="48">
    <path
       d="m15 4-3 3v-6z"
       id="path125" />
    <path
       d="m15 12-3 3v-6z"
       id="path127" />
    <path
       d="m1 3v2c1.8999 0 2.7807 0.4248 3.3418 0.9688 0.1998 0.1937 0.3592 0.433 0.5078 0.6914 0.2256-0.6267 0.5193-1.3219 1.002-2.002-0.0402-0.0419-0.0749-0.0859-0.1172-0.127-0.9861-0.956-2.5111-1.5312-4.7344-1.5312zm7.1504 6.3398c-0.2256 0.6267-0.5193 1.3222-1.002 2.0022 0.0402 0.042 0.0749 0.086 0.1172 0.127 0.9861 0.956 2.5111 1.531 4.7344 1.531v-2c-1.9 0-2.7807-0.425-3.3418-0.969-0.1998-0.1935-0.3592-0.4328-0.5078-0.6912z"
       id="path129" />
    <path
       d="m1 12c8.2464 0 2.7536-8 11-8"
       fill="none"
       stroke="#000"
       stroke-width="2"
       id="path131" />
  </svg>
  <svg
     width="16"
     height="16"
     viewBox="0 0 16 16"
     id="settings"
     y="64"
     version="1.1">
    <path
       d="M6.938 0A.43.43 0 0 0 6.5.438v1.25a5.818 5.818 0 0 0-1.53.656l-.907-.906a.436.436 0 0 0-.625 0l-1.5 1.5a.436.436 0 0 0 0 .624l.906.907c-.285.48-.514.976-.656 1.53H.938a.43.43 0 0 0-.438.438v2.125C.5 8.81.69 9 .938 9h1.25a5.82 5.82 0 0 0 .656 1.53l-.907.908a.436.436 0 0 0 0 .625l1.5 1.5c.176.176.45.176.625 0l.907-.907c.48.285.976.514 1.53.656v1.25c0 .25.19.438.437.438h2.125a.43.43 0 0 0 .438-.438v-1.25a5.82 5.82 0 0 0 1.53-.657l.907.907c.176.175.45.175.625 0l1.5-1.5a.436.436 0 0 0 0-.625l-.906-.906A5.79 5.79 0 0 0 13.812 9h1.25a.43.43 0 0 0 .438-.438V6.437A.43.43 0 0 0 15.062 6h-1.25a5.79 5.79 0 0 0-.656-1.532l.906-.906a.436.436 0 0 0 0-.625l-1.5-1.5a.436.436 0 0 0-.625 0l-.906.906a5.816 5.816 0 0 0-1.53-.656V.437A.43.43 0 0 0 9.063 0zM8 4.157a3.344 3.344 0 0 1 0 6.686 3.344 3.344 0 0 1 0-6.686z"
       id="path134" />
  </svg>
  <svg
     width="16"
     height="16"
     viewBox="0 0 16 16"
     id="sort-down"
     x="16"
     y="64"
     version="1.1">
    <path
       d="m4 6 4 4 4-3.994z"
       style="block-progression:tb;text-indent:0;text-transform:none"
       id="path137" />
  </svg>
  <svg
     width="16"
     height="16"
     viewBox="0 0 16 16"
     id="sort-up"
     x="32"
     y="64"
     version="1.1">
    <path
       d="m12 10-4-4-4 3.994z"
       style="block-progression:tb;text-indent:0;text-transform:none"
       id="path140" />
  </svg>
  <svg
     width="16"
     height="16"
     version="1.1"
     viewbox="0 0 16 16"
     viewBox="0 0 16 16"
     id="subtasks-hidden"
     x="48"
     y="64">
    <path
       d="m2 2v2h12v-2z"
       id="path143" />
    <path
       d="m6 7v2h8v-2zm4 5v2h4v-2z"
       opacity=".5"
       id="path145" />
  </svg>
  <svg
     width="16"
     height="16"
     version="1.1"
     viewbox="0 0 16 16"
     viewBox="0 0 16 16"
     id="subtasks-hidden~hover"
     x="64"
     y="64">
    <path
       d="m2 2v2h12v-2zm4 5v2h8v-2zm4 5v2h4v-2z"
       id="path148" />
  </svg>
  <svg
     width="16"
     height="16"
     version="1.1"
     viewbox="0 0 16 16"
     viewBox="0 0 16 16"
     id="subtasks-visible"
     x="80">
    <path
       d="m2 2v2h12v-2zm4 5v2h8v-2zm4 5v2h4v-2z"
       id="path151" />
  </svg>
  <svg
     width="16"
     height="16"
     viewBox="0 0 16 16"
     id="tag"
     x="80"
     y="16"
     version="1.1">
    <path
       d="m1.3594 1c-0.2723 0-0.3584 0.2237-0.3594 0.3594v4.791l8.7012 8.7016c0.1946 0.197 0.5048 0.197 0.6988 0l4.454-4.452c0.197-0.194 0.196-0.5051 0-0.7008l-8.7036-8.6992h-4.791zm2.4648 1.5a1.325 1.325 0 0 1 1.3262 1.3242 1.325 1.325 0 0 1-1.3262 1.3262 1.325 1.325 0 0 1-1.3242-1.3262 1.325 1.325 0 0 1 1.3242-1.3242z"
       id="path154" />
  </svg>
  <svg
     width="16"
     height="16"
     version="1.1"
     viewBox="0 0 16 16"
     id="tag-active"
     x="80"
     y="32">
    <path
       d="m1.3594 1c-0.2723 0-0.3584 0.2237-0.3594 0.3594v4.791l8.7012 8.7016c0.1946 0.197 0.5048 0.197 0.6988 0l4.454-4.452c0.197-0.194 0.196-0.5051 0-0.7008l-8.7036-8.6992h-4.791zm2.4648 1.5a1.325 1.325 0 0 1 1.3262 1.3242 1.325 1.325 0 0 1-1.3262 1.3262 1.325 1.325 0 0 1-1.3242-1.3262 1.325 1.325 0 0 1 1.3242-1.3242z"
       fill="#4574a9"
       id="path157" />
  </svg>
  <svg
     width="16"
     height="16"
     version="1.1"
     viewBox="0 0 16 16"
     id="task-star"
     x="80"
     y="48">
    <path
       d="m8 0.2 2.2 5.5 5.8 0.4-4.5 3.7 1.5 5.7-5-3.1-5 3.1 1.5-5.7-4.5-3.7 5.8-0.4z"
       id="path160" />
  </svg>
  <svg
     width="16"
     height="16"
     version="1.1"
     viewBox="0 0 16 16"
     id="task-star-high"
     x="80"
     y="64">
    <path
       d="m8 0.2 2.2 5.5 5.8 0.4-4.5 3.7 1.5 5.7-5-3.1-5 3.1 1.5-5.7-4.5-3.7 5.8-0.4z"
       fill="#CE3433"
       id="path163" />
  </svg>
  <svg
     width="16"
     height="16"
     version="1.1"
     viewBox="0 0 16 16"
     id="task-star-low"
     y="80">
    <path
       d="m8 0.2 2.2 5.5 5.8 0.4-4.5 3.7 1.5 5.7-5-3.1-5 3.1 1.5-5.7-4.5-3.7 5.8-0.4z"
       fill="#4574A9"
       id="path166" />
  </svg>
  <svg
     width="16"
     height="16"
     version="1.1"
     viewBox="0 0 16 16"
     id="task-star-medium"
     x="16"
     y="80">
    <path
       d="m8 0.2 2.2 5.5 5.8 0.4-4.5 3.7 1.5 5.7-5-3.1-5 3.1 1.5-5.7-4.5-3.7 5.8-0.4z"
       fill="#FFCC0C"
       id="path169" />
  </svg>
  <svg
     width="16"
     height="16"
     viewBox="0 0 16 16"
     id="toggle"
     x="32"
     y="80"
     version="1.1">
    <path
       d="m8 3c-3.11 0-5.927 1.72-8 4.5 2.073 2.78 4.89 4.5 8 4.5s5.927-1.72 8-4.5c-2.073-2.78-4.89-4.5-8-4.5zm0 1.5a3 3 0 1 1 0 6 3 3 0 0 1 0-6zm0 1.5a1.5 1.5 0 1 0 0 3 1.5 1.5 0 0 0 0-3z"
       id="path172" />
  </svg>
  <svg
     width="16"
     height="16"
     viewBox="0 0 16 16"
     id="trash"
     x="48"
     y="80"
     version="1.1">
    <path
       d="M6.5 1L6 2H3c-.554 0-1 .446-1 1v1h12V3c0-.554-.446-1-1-1h-3l-.5-1zM3 5l.875 9c.06.55.573 1 1.125 1h6c.552 0 1.064-.45 1.125-1L13 5z"
       fill-rule="evenodd"
       id="path175" />
  </svg>
  <svg
     transform="translate(-0.9999965,-1)"
     width="16"
     height="16"
     version="1.1"
     viewbox="0 0 16 16"
     viewBox="0 0 16 16"
     id="calendar"
     x="16"
     y="16">
    <path
       inkscape:connector-curvature="0"
       d="M 4,1 C 3.446,1 3,1.446 3,2 V 4 C 3,4.554 3.446,5 4,5 4.554,5 5,4.554 5,4 V 2 C 5,1.446 4.554,1 4,1 Z m 8,0 c -0.554,0 -1,0.446 -1,1 v 2 c 0,0.554 0.446,1 1,1 0.554,0 1,-0.446 1,-1 V 2 C 13,1.446 12.554,1 12,1 Z M 5.5,3 V 4 C 5.5,4.831 4.831,5.5 4,5.5 3.169,5.5 2.5,4.831 2.5,4 V 3.0625 C 1.6159,3.2895 0.9983,4.0872 1,5 v 8 c 0,1.108 0.892,2 2,2 h 10 c 1.108,0 2,-0.892 2,-2 V 5 C 15.0017,4.0872 14.38412,3.2895 13.5,3.0625 V 4 C 13.5,4.831 12.831,5.5 12,5.5 11.169,5.5 10.5,4.831 10.5,4 V 3 Z M 3.047,7 h 9.906 C 12.97944,6.9988 13.0012,7.02056 13,7.047 v 5.906 C 13.0012,12.97944 12.97944,13.0012 12.953,13 H 3.047 C 3.02056,13.0012 2.998796,12.97944 3,12.953 V 7.047 C 2.9988,7.02056 3.02056,6.998795 3.047,7 Z"
       id="path13" />
  </svg>
  <path
     id="path13-5"
     d="m 68,81 c -0.554,0 -1,0.446 -1,1 v 2 c 0,0.554 0.446,1 1,1 0.554,0 1,-0.446 1,-1 v -2 c 0,-0.554 -0.446,-1 -1,-1 z m 8,0 c -0.554,0 -1,0.446 -1,1 v 2 c 0,0.554 0.446,1 1,1 0.554,0 1,-0.446 1,-1 v -2 c 0,-0.554 -0.446,-1 -1,-1 z m -6.5,2 v 1 c 0,0.831 -0.669,1.5 -1.5,1.5 -0.831,0 -1.5,-0.669 -1.5,-1.5 V 83.0625 C 65.6159,83.2895 64.9983,84.0872 65,85 v 8 c 0,1.108 0.892,2 2,2 h 10 c 1.108,0 2,-0.892 2,-2 v -8 c 0.0017,-0.9128 -0.61588,-1.7105 -1.5,-1.9375 V 84 c 0,0.831 -0.669,1.5 -1.5,1.5 -0.831,0 -1.5,-0.669 -1.5,-1.5 v -1 z m -2.453,4 h 9.906 c 0.02644,-0.0012 0.0482,0.02056 0.047,0.047 v 5.906 C 77.0012,92.97944 76.97944,93.0012 76.953,93 H 67.047 C 67.02056,93.0012 66.998796,92.97944 67,92.953 V 87.047 C 66.9988,87.02056 67.02056,86.9988 67.047,87 Z"
     inkscape:connector-curvature="0"
     style="fill:#ffffff;fill-opacity:1" />
</svg>
