<?xml version="1.0" encoding="UTF-8" standalone="no"?>
<!-- Created with Inkscape (http://www.inkscape.org/) -->

<svg
   xmlns:dc="http://purl.org/dc/elements/1.1/"
   xmlns:cc="http://creativecommons.org/ns#"
   xmlns:rdf="http://www.w3.org/1999/02/22-rdf-syntax-ns#"
   xmlns:svg="http://www.w3.org/2000/svg"
   xmlns="http://www.w3.org/2000/svg"
   xmlns:sodipodi="http://sodipodi.sourceforge.net/DTD/sodipodi-0.dtd"
   xmlns:inkscape="http://www.inkscape.org/namespaces/inkscape"
   version="1.1"
   id="svg2"
   xml:space="preserve"
   width="272"
   height="127.30521"
   viewBox="0 0 272 127.30521"
   sodipodi:docname="square-Ki.svg"
   inkscape:version="0.92.3 (2405546, 2018-03-11)"><metadata
     id="metadata8"><rdf:RDF><cc:Work
         rdf:about=""><dc:format>image/svg+xml</dc:format><dc:type
           rdf:resource="http://purl.org/dc/dcmitype/StillImage" /><dc:title></dc:title></cc:Work></rdf:RDF></metadata><defs
     id="defs6"><style
       id="style4526">.cls-1{fill:#f7e9e2;}</style><style
       id="style4552">.cls-1{fill:#55ffa0;}</style><style
       id="style4580">.cls-1{fill:#50ffff;}</style><style
       id="style4606">.cls-1{fill:#50ffff;}</style><style
       id="style4634">.cls-1{fill:#f7e9e2;}</style><style
       id="style4660">.cls-1{fill:#55ffa0;}</style><style
       id="style4686">.cls-1{fill:#1414ff;}</style><style
       id="style4712">.cls-1{fill:#50ffff;}</style><style
       id="style2">.cls-1{fill:#1414ff;}</style><style
       id="style2-2">.cls-1{fill:#f7e9e2;}</style><style
       id="style2-1">.cls-1{fill:#50ffff;}</style><style
       id="style2-8">.cls-1{fill:#55ffa0;}</style></defs><sodipodi:namedview
     pagecolor="#ffffff"
     bordercolor="#666666"
     borderopacity="1"
     objecttolerance="10"
     gridtolerance="10"
     guidetolerance="10"
     inkscape:pageopacity="0"
     inkscape:pageshadow="2"
     inkscape:window-width="1539"
     inkscape:window-height="839"
     id="namedview4"
     showgrid="false"
     showguides="true"
     inkscape:guide-bbox="true"
     fit-margin-top="10"
     fit-margin-left="10"
     fit-margin-right="10"
     fit-margin-bottom="10"
     inkscape:pagecheckerboard="true"
     inkscape:zoom="2.8284271"
     inkscape:cx="148.59529"
     inkscape:cy="63.275546"
     inkscape:window-x="517"
     inkscape:window-y="349"
     inkscape:window-maximized="0"
     inkscape:current-layer="g10"><sodipodi:guide
       position="434.00001,-163.33196"
       orientation="1,0"
       id="guide4578"
       inkscape:locked="false" /><sodipodi:guide
       position="327.08594,-81.999929"
       orientation="0,1"
       id="guide4632"
       inkscape:locked="false" /></sodipodi:namedview><g
     id="g10"
     inkscape:groupmode="layer"
     inkscape:label="ink_ext_XXXXXX"
     transform="matrix(1.3333333,0,0,-1.3333333,477.08593,409.3052)"><g
       id="g12"
       transform="matrix(0.08201221,0,0,0.08201221,-251.9117,233.34476)"><path
         d="M 138.551,349.906 343.629,600 H 512.742 L 269.895,315.742 531.668,0 H 353.555 L 138.551,266.254 V 0 H 0 V 600 H 138.551 V 349.906"
         style="fill:#231f20;fill-opacity:1;fill-rule:nonzero;stroke:none"
         id="path14"
         inkscape:connector-curvature="0" /><path
         d="M 877.359,255.473 H 476.156 V 385.02 h 401.203 z m 227.321,64.769 c 0,-42.289 -33.28,-75.574 -75.53,-75.574 -42.33,0 -75.619,33.285 -75.619,75.574 0,42.293 33.289,75.578 75.619,75.578 42.25,0 75.53,-33.285 75.53,-75.578"
         style="fill:#231f20;fill-opacity:1;fill-rule:nonzero;stroke:none"
         id="path16"
         inkscape:connector-curvature="0" /></g><g
       data-name="Lager 2"
       id="Lager_2-0"
       transform="matrix(0.75000002,0,0,-0.75000002,-189.81446,300.00001)"><g
         data-name="Lager 1"
         id="Lager_1-2-6" /></g><g
       id="g4840"
       transform="matrix(0.26826302,0,0,0.26826302,-301.40623,219)"><g
         id="Lager_2"
         data-name="Lager 2"
         transform="matrix(0,0.75000002,0.75000002,0,-32.314454,146.25)"><g
           id="Lager_1-2"
           data-name="Lager 1"><rect
             class="cls-1"
             width="200"
             height="200"
             id="rect8"
             x="5"
             y="0"
             style="fill:#1414ff;stroke-width:0.97590005" /><path
             id="_Stansad_bana_"
             data-name="&lt;Stansad bana&gt;"
             d="M 68.62,95 89.13,70 H 106 L 81.76,98.43 107.93,130 H 90.12 L 68.62,103.37 V 130 H 54.77 V 70 h 13.85 z"
             inkscape:connector-curvature="0" /><g
             id="_Grupp_"
             data-name="&lt;Grupp&gt;"><path
               id="_Stansad_bana_2"
               data-name="&lt;Stansad bana&gt;"
               d="m 165.23,98 a 7.56,7.56 0 1 1 -7.55,-7.56 7.49,7.49 0 0 1 7.55,7.56 z m -22.73,6.48 h -40.12 v -13 h 40.12 z"
               inkscape:connector-curvature="0" /></g></g></g><g
         id="Lager_2-2"
         data-name="Lager 2"
         transform="matrix(0,-0.75000002,-0.75000002,0,-32.314454,153.75)"><g
           id="Lager_1-2-8"
           data-name="Lager 1"><rect
             class="cls-1"
             width="200"
             height="200"
             id="rect8-9"
             x="5"
             y="0"
             style="fill:#f7e9e2;stroke-width:0.97590005" /><path
             id="_Stansad_bana_-7"
             data-name="&lt;Stansad bana&gt;"
             d="M 68.62,95 89.13,70 H 106 L 81.76,98.43 107.93,130 H 90.12 L 68.62,103.37 V 130 H 54.77 V 70 h 13.85 z"
             inkscape:connector-curvature="0" /><g
             id="_Grupp_-3"
             data-name="&lt;Grupp&gt;"><path
               id="_Stansad_bana_2-6"
               data-name="&lt;Stansad bana&gt;"
               d="m 165.23,98 a 7.56,7.56 0 1 1 -7.55,-7.56 7.49,7.49 0 0 1 7.55,7.56 z m -22.73,6.48 h -40.12 v -13 h 40.12 z"
               inkscape:connector-curvature="0" /></g></g></g><g
         id="Lager_2-29"
         data-name="Lager 2"
         transform="matrix(-0.75000002,0,0,0.75000002,121.43555,-2.499999e-7)"><g
           id="Lager_1-2-3"
           data-name="Lager 1"><rect
             class="cls-1"
             width="200"
             height="200"
             id="rect8-1"
             x="5"
             y="0"
             style="fill:#50ffff;stroke-width:0.97590005" /><path
             id="_Stansad_bana_-9"
             data-name="&lt;Stansad bana&gt;"
             d="M 68.62,95 89.13,70 H 106 L 81.76,98.43 107.93,130 H 90.12 L 68.62,103.37 V 130 H 54.77 V 70 h 13.85 z"
             inkscape:connector-curvature="0" /><g
             id="_Grupp_-4"
             data-name="&lt;Grupp&gt;"><path
               id="_Stansad_bana_2-7"
               data-name="&lt;Stansad bana&gt;"
               d="m 165.23,98 a 7.56,7.56 0 1 1 -7.55,-7.56 7.49,7.49 0 0 1 7.55,7.56 z m -22.73,6.48 h -40.12 v -13 h 40.12 z"
               inkscape:connector-curvature="0" /></g></g></g><g
         id="Lager_2-4"
         data-name="Lager 2"
         transform="matrix(0.75000002,0,0,-0.75000002,-186.06446,300.00001)"><g
           id="Lager_1-2-5"
           data-name="Lager 1"><rect
             class="cls-1"
             width="200"
             height="200"
             id="rect8-0"
             x="5"
             y="0"
             style="fill:#55ffa0;stroke-width:0.97590005" /><path
             id="_Stansad_bana_-3"
             data-name="&lt;Stansad bana&gt;"
             d="M 68.62,95 89.13,70 H 106 L 81.76,98.43 107.93,130 H 90.12 L 68.62,103.37 V 130 H 54.77 V 70 h 13.85 z"
             inkscape:connector-curvature="0" /><g
             id="_Grupp_-6"
             data-name="&lt;Grupp&gt;"><path
               id="_Stansad_bana_2-1"
               data-name="&lt;Stansad bana&gt;"
               d="m 165.23,98 a 7.56,7.56 0 1 1 -7.55,-7.56 7.49,7.49 0 0 1 7.55,7.56 z m -22.73,6.48 h -40.12 v -13 h 40.12 z"
               inkscape:connector-curvature="0" /></g></g></g></g></g></svg>