<?xml version="1.0" encoding="UTF-8" standalone="no"?>
<!-- Created with Inkscape (http://www.inkscape.org/) -->

<svg
   xmlns:dc="http://purl.org/dc/elements/1.1/"
   xmlns:cc="http://creativecommons.org/ns#"
   xmlns:rdf="http://www.w3.org/1999/02/22-rdf-syntax-ns#"
   xmlns:svg="http://www.w3.org/2000/svg"
   xmlns="http://www.w3.org/2000/svg"
   xmlns:sodipodi="http://sodipodi.sourceforge.net/DTD/sodipodi-0.dtd"
   xmlns:inkscape="http://www.inkscape.org/namespaces/inkscape"
   version="1.1"
   id="svg2"
   xml:space="preserve"
   width="570"
   height="570"
   viewBox="0 0 570.00002 570.00003"
   sodipodi:docname="logo.svg"
   inkscape:version="0.92.5 (2060ec1f9f, 2020-04-08)"
   inkscape:export-filename="/home/pa/mntpoints/bb_intra/home/common/projects/kinguard/grafisk profil/Logo/Digitalt/square-Ki-600px.png"
   inkscape:export-xdpi="211.75999"
   inkscape:export-ydpi="211.75999"><metadata
     id="metadata8"><rdf:RDF><cc:Work
         rdf:about=""><dc:format>image/svg+xml</dc:format><dc:type
           rdf:resource="http://purl.org/dc/dcmitype/StillImage" /><dc:title></dc:title></cc:Work></rdf:RDF></metadata><defs
     id="defs6"><style
       id="style4526">.cls-1{fill:#f7e9e2;}</style><style
       id="style4552">.cls-1{fill:#55ffa0;}</style><style
       id="style4580">.cls-1{fill:#50ffff;}</style><style
       id="style4606">.cls-1{fill:#50ffff;}</style><style
       id="style4634">.cls-1{fill:#f7e9e2;}</style><style
       id="style4660">.cls-1{fill:#55ffa0;}</style><style
       id="style4686">.cls-1{fill:#1414ff;}</style><style
       id="style4712">.cls-1{fill:#50ffff;}</style><style
       id="style2">.cls-1{fill:#1414ff;}</style><style
       id="style2-2">.cls-1{fill:#f7e9e2;}</style><style
       id="style2-1">.cls-1{fill:#50ffff;}</style><style
       id="style2-8">.cls-1{fill:#55ffa0;}</style></defs><sodipodi:namedview
     pagecolor="#ffffff"
     bordercolor="#666666"
     borderopacity="1"
     objecttolerance="10"
     gridtolerance="10"
     guidetolerance="10"
     inkscape:pageopacity="0"
     inkscape:pageshadow="2"
     inkscape:window-width="1883"
     inkscape:window-height="875"
     id="namedview4"
     showgrid="false"
     showguides="true"
     inkscape:guide-bbox="true"
     fit-margin-top="20"
     fit-margin-left="20"
     fit-margin-right="20"
     fit-margin-bottom="20"
     inkscape:pagecheckerboard="true"
     inkscape:zoom="0.91278959"
     inkscape:cx="48.953277"
     inkscape:cy="272.92612"
     inkscape:window-x="652"
     inkscape:window-y="112"
     inkscape:window-maximized="0"
     inkscape:current-layer="g4840"
     showborder="true"><sodipodi:guide
       position="655.34743,58.015475"
       orientation="1,0"
       id="guide4578"
       inkscape:locked="false" /><sodipodi:guide
       position="548.43336,139.34751"
       orientation="0,1"
       id="guide4632"
       inkscape:locked="false" /></sodipodi:namedview><g
     id="g10"
     inkscape:groupmode="layer"
     inkscape:label="ink_ext_XXXXXX"
     transform="matrix(1.3333333,0,0,-1.3333333,698.43333,630.6526)"><g
       data-name="Lager 2"
       id="Lager_2-0"
       transform="matrix(0.75000002,0,0,-0.75000002,-189.81446,300.00001)"><g
         data-name="Lager 1"
         id="Lager_1-2-6" /></g><g
       id="g4840"
       transform="matrix(0.26826302,0,0,0.26826302,-301.40623,219)"><g
         id="Lager_2"
         data-name="Lager 2"
         transform="matrix(0,3.7043869,3.7043869,0,-32.31445,131.47805)"><g
           id="Lager_1-2"
           data-name="Lager 1"><rect
             class="cls-1"
             width="200"
             height="200"
             id="rect8"
             x="5"
             y="0"
             style="fill:#1414ff;stroke-width:0.97590005" /><path
             id="_Stansad_bana_"
             data-name="&lt;Stansad bana&gt;"
             d="M 68.62,95 89.13,70 H 106 L 81.76,98.43 107.93,130 H 90.12 L 68.62,103.37 V 130 H 54.77 V 70 h 13.85 z"
             inkscape:connector-curvature="0" /><g
             id="_Grupp_"
             data-name="&lt;Grupp&gt;"><path
               id="_Stansad_bana_2"
               data-name="&lt;Stansad bana&gt;"
               d="m 165.23,98 a 7.56,7.56 0 1 1 -7.55,-7.56 7.49,7.49 0 0 1 7.55,7.56 z m -22.73,6.48 h -40.12 v -13 h 40.12 z"
               inkscape:connector-curvature="0" /></g></g></g><g
         id="Lager_2-2"
         data-name="Lager 2"
         transform="matrix(0,-3.7043869,-3.7043869,0,-32.31445,168.52192)"><g
           id="Lager_1-2-8"
           data-name="Lager 1"><rect
             class="cls-1"
             width="200"
             height="200"
             id="rect8-9"
             x="5"
             y="0"
             style="fill:#f7e9e2;stroke-width:0.97590005" /><path
             id="_Stansad_bana_-7"
             data-name="&lt;Stansad bana&gt;"
             d="M 68.62,95 89.13,70 H 106 L 81.76,98.43 107.93,130 H 90.12 L 68.62,103.37 V 130 H 54.77 V 70 h 13.85 z"
             inkscape:connector-curvature="0" /><g
             id="_Grupp_-3"
             data-name="&lt;Grupp&gt;"><path
               id="_Stansad_bana_2-6"
               data-name="&lt;Stansad bana&gt;"
               d="m 165.23,98 a 7.56,7.56 0 1 1 -7.55,-7.56 7.49,7.49 0 0 1 7.55,7.56 z m -22.73,6.48 h -40.12 v -13 h 40.12 z"
               inkscape:connector-curvature="0" /></g></g></g><g
         id="Lager_2-29"
         data-name="Lager 2"
         transform="matrix(-3.7043869,0,0,3.7043869,727.08486,-590.87738)"><g
           id="Lager_1-2-3"
           data-name="Lager 1"><rect
             class="cls-1"
             width="200"
             height="200"
             id="rect8-1"
             x="5"
             y="0"
             style="fill:#50ffff;stroke-width:0.97590005" /><path
             id="_Stansad_bana_-9"
             data-name="&lt;Stansad bana&gt;"
             d="M 68.62,95 89.13,70 H 106 L 81.76,98.43 107.93,130 H 90.12 L 68.62,103.37 V 130 H 54.77 V 70 h 13.85 z"
             inkscape:connector-curvature="0" /><g
             id="_Grupp_-4"
             data-name="&lt;Grupp&gt;"><path
               id="_Stansad_bana_2-7"
               data-name="&lt;Stansad bana&gt;"
               d="m 165.23,98 a 7.56,7.56 0 1 1 -7.55,-7.56 7.49,7.49 0 0 1 7.55,7.56 z m -22.73,6.48 h -40.12 v -13 h 40.12 z"
               inkscape:connector-curvature="0" /></g></g></g><g
         id="Lager_2-4"
         data-name="Lager 2"
         transform="matrix(3.7043869,0,0,-3.7043869,-791.71377,890.87739)"><g
           id="Lager_1-2-5"
           data-name="Lager 1"><rect
             class="cls-1"
             width="200"
             height="200"
             id="rect8-0"
             x="5"
             y="0"
             style="fill:#55ffa0;stroke-width:0.97590005" /><path
             id="_Stansad_bana_-3"
             data-name="&lt;Stansad bana&gt;"
             d="M 68.62,95 89.13,70 H 106 L 81.76,98.43 107.93,130 H 90.12 L 68.62,103.37 V 130 H 54.77 V 70 h 13.85 z"
             inkscape:connector-curvature="0" /><g
             id="_Grupp_-6"
             data-name="&lt;Grupp&gt;"><path
               id="_Stansad_bana_2-1"
               data-name="&lt;Stansad bana&gt;"
               d="m 165.23,98 a 7.56,7.56 0 1 1 -7.55,-7.56 7.49,7.49 0 0 1 7.55,7.56 z m -22.73,6.48 h -40.12 v -13 h 40.12 z"
               inkscape:connector-curvature="0" /></g></g></g></g></g></svg>